<svg width="312" height="137" viewBox="0 0 312 137" fill="none" xmlns="http://www.w3.org/2000/svg">
<g clip-path="url(#clip0_2466_52300)">
<rect width="312" height="137" rx="20" fill="#F5F5F5"/>
<path d="M187.819 47.5111C187.562 47.723 187.84 48.1502 188.129 48.0558C188.599 47.8577 189.106 47.7654 189.615 47.7856C190.125 47.8057 190.623 47.9378 191.076 48.1724C191.421 48.3947 191.684 48.7237 191.825 49.1094C191.965 49.4951 191.976 49.9162 191.855 50.3084C191.531 51.2251 190.36 51.4182 189.559 51.7386C189.097 51.8695 188.674 52.1109 188.326 52.4422C187.978 52.7734 187.716 53.1845 187.563 53.6397C187.525 53.8015 187.551 53.972 187.635 54.1151C187.72 54.2583 187.857 54.363 188.017 54.4073C188.178 54.4515 188.349 54.4319 188.495 54.3525C188.641 54.2731 188.751 54.1401 188.801 53.9814C189.233 52.9045 190.733 52.7728 191.631 52.2904C192.145 52.0321 192.564 51.619 192.83 51.1094C193.097 50.5999 193.196 50.0196 193.115 49.4504C193.02 48.8852 192.778 48.3551 192.412 47.9142C192.046 47.4732 191.569 47.1371 191.031 46.94C190.493 46.7429 189.912 46.6919 189.348 46.7923C188.784 46.8926 188.256 47.1406 187.819 47.5111Z" fill="#141414"/>
<path d="M188.218 56.1213C188.149 56.1194 188.081 56.1317 188.017 56.1574C187.953 56.1832 187.895 56.2218 187.847 56.2709C187.798 56.32 187.76 56.3785 187.736 56.4428C187.711 56.5071 187.7 56.5758 187.703 56.6446C187.701 56.7498 187.732 56.853 187.791 56.9404C187.849 57.0278 187.933 57.0953 188.031 57.1339C188.129 57.1725 188.236 57.1805 188.339 57.1567C188.441 57.1329 188.534 57.0784 188.605 57.0006C188.672 56.9249 188.716 56.8316 188.732 56.7317C188.748 56.6317 188.734 56.5294 188.693 56.4368C188.653 56.3443 188.586 56.2653 188.502 56.2094C188.418 56.1535 188.319 56.1229 188.218 56.1213Z" fill="#141414"/>
<path d="M205.084 42.3434C204.851 42.0043 204.235 41.497 204.241 40.8384C204.367 40.1381 204.681 39.485 205.148 38.948C205.59 38.3656 205.844 37.6621 205.876 36.9315C205.907 36.2009 205.716 35.478 205.326 34.8594C204.917 34.2472 204.335 33.7716 203.653 33.4941C202.971 33.2166 202.222 33.15 201.502 33.3029C200.782 33.4558 200.125 33.8211 199.615 34.3517C199.105 34.8822 198.766 35.5536 198.642 36.2789C198.619 36.3737 198.635 36.4734 198.684 36.5572C198.734 36.641 198.814 36.7024 198.908 36.7286C199.001 36.7548 199.102 36.7437 199.187 36.6977C199.273 36.6518 199.338 36.5744 199.368 36.4818C199.587 35.8478 199.994 35.2955 200.534 34.8981C201.075 34.5007 201.723 34.2771 202.394 34.2568C203.005 34.2998 203.579 34.5625 204.011 34.9962C204.443 35.4299 204.703 36.0054 204.744 36.6162C204.798 37.9085 203.538 38.8555 203.142 40.0329C202.988 40.5128 202.972 41.0259 203.095 41.5144C203.217 42.003 203.474 42.4476 203.836 42.7982C204.084 43.0703 204.414 43.254 204.776 43.3215C204.84 43.3376 204.908 43.3367 204.973 43.3188C205.037 43.3009 205.096 43.2666 205.143 43.2193C205.19 43.172 205.225 43.1132 205.242 43.0488C205.26 42.9844 205.261 42.9164 205.245 42.8516C205.207 42.6774 205.153 42.5072 205.084 42.3434Z" fill="#141414"/>
<path d="M206.892 45.3267C206.852 45.2212 206.78 45.1306 206.687 45.0669C206.594 45.0033 206.483 44.9697 206.37 44.9707C206.243 44.9772 206.121 45.025 206.023 45.1068C205.925 45.1886 205.856 45.3 205.827 45.4243C205.798 45.5486 205.81 45.679 205.861 45.7959C205.912 45.9128 206 46.0099 206.111 46.0725C206.54 46.3734 207.066 45.7788 206.892 45.3267Z" fill="#141414"/>
<path d="M226.609 33.3114C227.36 30.4296 225.167 27.1971 222.082 27.2149C220.747 27.222 218.911 27.9928 218.686 29.4995C218.665 29.5915 218.677 29.6882 218.72 29.7722C218.763 29.8562 218.835 29.9221 218.922 29.958C219.009 29.994 219.107 29.9977 219.197 29.9685C219.286 29.9393 219.363 29.8791 219.412 29.7986C221.956 26.179 227.239 30.1635 224.964 33.9629C224.202 35.2365 222.788 35.6219 221.538 36.2582C220.397 36.8385 218.644 38.3453 219.359 39.8138C219.587 40.2819 220.201 40.0808 220.352 39.6856C220.557 39.1516 220.407 38.6247 221.388 37.8709C222.75 36.8269 225.78 36.4914 226.609 33.3114Z" fill="#141414"/>
<path d="M218.825 43.416C218.714 43.4187 218.605 43.4511 218.51 43.5097C218.415 43.5683 218.338 43.6511 218.285 43.7496C218.233 43.848 218.208 43.9587 218.213 44.0701C218.217 44.1814 218.251 44.2896 218.312 44.3835C218.363 44.473 218.437 44.5467 218.528 44.5965C218.618 44.6462 218.72 44.6701 218.823 44.6656C218.989 44.6658 219.148 44.6002 219.265 44.4832C219.383 44.3662 219.449 44.2074 219.449 44.0417C219.449 43.876 219.384 43.717 219.267 43.5996C219.15 43.4823 218.991 43.4163 218.825 43.416Z" fill="#141414"/>
<path d="M231.027 48.1623C230.302 47.8471 229.507 47.7253 228.721 47.8087C227.934 47.8922 227.183 48.178 226.54 48.6383C225.897 49.0986 225.384 49.7177 225.051 50.4352C224.719 51.1527 224.578 51.9442 224.642 52.7324C224.647 52.8185 224.684 52.8997 224.746 52.9591C224.809 53.0184 224.892 53.0516 224.978 53.0516C225.064 53.0516 225.147 53.0184 225.21 52.9591C225.272 52.8997 225.31 52.8185 225.314 52.7324C225.375 52.0637 225.584 51.4169 225.926 50.8389C226.267 50.2609 226.733 49.7661 227.29 49.3905C230.117 47.6995 232.986 50.4104 231.624 52.9567C230.607 54.8604 228.278 55.9524 227.886 58.359C227.657 59.7661 228.084 60.1292 228.483 60.495C228.544 60.5526 228.622 60.589 228.705 60.5987C228.788 60.6084 228.872 60.5908 228.944 60.5487C229.016 60.5065 229.073 60.4421 229.105 60.365C229.138 60.2879 229.145 60.2024 229.124 60.1212C229.095 59.929 229.135 59.7367 229.114 59.5552C228.56 56.4161 233.036 55.2218 233.203 51.7392C233.216 50.9982 233.018 50.2687 232.633 49.6355C232.248 49.0023 231.691 48.4915 231.027 48.1623Z" fill="#141414"/>
<path d="M229.529 63.4812C229.084 63.3032 228.474 63.7206 228.738 64.2474C228.811 64.3629 228.918 64.4522 229.045 64.5021C229.172 64.5521 229.312 64.5601 229.444 64.5251C229.554 64.495 229.653 64.4316 229.726 64.3436C229.799 64.2555 229.843 64.1471 229.852 64.0331C229.862 63.919 229.836 63.8049 229.778 63.7061C229.72 63.6074 229.633 63.5288 229.529 63.4812Z" fill="#141414"/>
<path d="M237.714 74.4501C237.563 74.7375 237.941 75.0624 238.183 74.8123C239.146 73.819 241.469 74.2249 241.663 77.1192C241.798 77.8141 241.689 78.5341 241.355 79.1582C240.457 80.2876 238.515 79.645 237.318 79.7028C236.08 79.7625 234.493 80.4504 234.521 81.8913C234.529 82.3363 235.238 82.6256 235.439 82.137C236.5 79.556 240.033 82.0987 242.037 80.0553C242.564 79.4356 242.828 78.6353 242.774 77.824C242.841 72.9869 238.735 72.4929 237.714 74.4501Z" fill="#141414"/>
<path d="M232.883 83.9221C232.894 84.0391 232.928 84.1529 232.981 84.2576C233.02 84.3227 233.075 84.3767 233.141 84.4141C233.207 84.4516 233.281 84.4712 233.357 84.4712C233.433 84.4712 233.507 84.4516 233.573 84.4141C233.639 84.3767 233.694 84.3227 233.733 84.2576C233.785 84.155 233.818 84.0437 233.83 83.9292C233.851 83.8562 233.855 83.7794 233.842 83.7046C233.828 83.6299 233.797 83.5594 233.752 83.4985C233.706 83.4376 233.648 83.3881 233.58 83.3538C233.512 83.3195 233.437 83.3014 233.361 83.3008C233.285 83.3002 233.21 83.3172 233.142 83.3505C233.074 83.3838 233.014 83.4324 232.968 83.4926C232.921 83.5528 232.889 83.6229 232.875 83.6974C232.86 83.7719 232.863 83.8488 232.883 83.9221Z" fill="#141414"/>
<path d="M219.551 81.4204C219.542 76.4035 218.86 68.3089 217.737 63.8678C216.683 59.7026 214.416 55.6255 210.145 54.1517C208.486 53.6255 206.729 53.4883 205.009 53.7507C203.289 54.0131 201.652 54.668 200.226 55.6647C196.304 58.3347 194.886 62.3059 194.204 67.0149C193.597 71.5472 193.422 76.1269 193.681 80.6924C193.74 81.8271 193.32 81.9722 195.335 82.0799C196.162 82.1244 196.991 82.0994 197.813 82.0051C198.462 81.9313 197.243 80.7369 198.378 69.6519C198.734 66.1809 199.452 62.4501 201.966 59.8504C204.386 57.3486 207.707 56.7603 210.348 59.0494C212.988 61.3384 213.808 65.0604 214.277 68.3597C214.598 70.6238 214.792 72.9084 214.949 75.1824C215.426 82.0523 215.047 81.9063 215.366 81.909C216.678 81.9362 217.991 81.8768 219.295 81.731C219.329 81.7308 219.361 81.7172 219.385 81.6932C219.409 81.6692 219.423 81.6368 219.423 81.6029C219.487 81.5592 219.551 81.5165 219.551 81.4204Z" fill="#62A7FF"/>
<path d="M222.413 122.668C221.879 113.109 222.651 111.73 213.967 111.286C209.332 111.05 180.002 111.387 175.135 112.311C170.844 113.126 170.986 115.73 170.96 121.952C170.955 123.223 170.721 124.698 171.238 125.903C172.229 128.217 175.851 127.852 179.79 127.803C181.402 127.783 216.369 127.236 217.448 127.163C220.99 126.922 222.622 126.383 222.413 122.668ZM221.335 123.725C221.232 125.899 219.489 125.95 217.267 126.084C215.256 126.205 215.036 126.113 188.431 126.576C185.373 126.259 174.884 127.392 172.938 126.255C171.851 125.621 172.019 124.216 172.04 123.14C172.142 118.1 171.992 116.132 172.752 114.844C173.828 113.034 176.296 112.776 202.627 112.314C218.089 112.042 220.152 112.37 220.811 115.303C221.132 117.179 221.279 119.081 221.249 120.984C221.277 121.867 221.378 122.807 221.335 123.725Z" fill="#141414"/>
<path d="M181.187 119.603C180.679 119.371 180.427 119.591 178.731 119.827C179.041 119.007 179.42 118.214 179.863 117.457C180.022 117.243 179.705 116.915 179.489 117.083C178.758 117.787 178.2 118.649 177.856 119.603C177.305 118.85 176.663 118.169 175.944 117.575C175.677 117.373 175.357 117.753 175.506 118.012C175.716 118.372 177.07 119.959 177.151 120.052C176.348 120.122 175.556 120.286 174.791 120.543C174.73 120.561 174.678 120.599 174.643 120.652C174.608 120.705 174.593 120.769 174.601 120.832C174.608 120.895 174.638 120.953 174.685 120.996C174.732 121.039 174.792 121.064 174.856 121.066C175.628 121.121 176.405 121.085 177.17 120.959C177.059 121.167 176.959 121.381 176.87 121.599C176.527 122.094 176.313 122.667 176.247 123.265C176.264 123.49 176.524 123.71 176.749 123.554C177.173 123.257 177.219 123.027 178.052 121.194C179.148 122.603 179.217 122.963 179.739 123.127C179.782 123.139 179.827 123.141 179.87 123.132C179.914 123.124 179.955 123.105 179.99 123.079C180.025 123.052 180.054 123.017 180.073 122.977C180.093 122.937 180.103 122.893 180.102 122.849C180.102 122.375 179.878 122.181 178.746 120.767C179.12 120.724 179.483 120.67 179.856 120.607C180.369 120.518 180.914 120.5 181.245 120.062C181.278 120.031 181.303 119.993 181.318 119.951C181.334 119.908 181.339 119.863 181.333 119.818C181.328 119.773 181.311 119.73 181.286 119.693C181.261 119.656 181.227 119.625 181.187 119.603Z" fill="#62A7FF"/>
<path d="M190.606 118.929C190.109 118.685 189.888 118.912 188.15 119.154C188.461 118.333 188.839 117.541 189.282 116.783C189.441 116.569 189.124 116.241 188.908 116.41C188.178 117.113 187.619 117.975 187.275 118.929C186.724 118.177 186.082 117.495 185.363 116.901C185.096 116.699 184.776 117.079 184.926 117.339C185.135 117.695 186.489 119.285 186.57 119.378C185.767 119.448 184.975 119.613 184.21 119.869C184.149 119.887 184.097 119.925 184.062 119.978C184.027 120.031 184.012 120.095 184.019 120.158C184.027 120.221 184.057 120.279 184.104 120.322C184.15 120.365 184.211 120.39 184.274 120.392C185.047 120.448 185.824 120.412 186.588 120.286C186.478 120.494 186.378 120.708 186.289 120.926C185.946 121.421 185.731 121.993 185.666 122.592C185.683 122.816 185.943 123.037 186.168 122.88C186.592 122.583 186.638 122.353 187.471 120.521C188.568 121.929 188.636 122.289 189.162 122.453C189.205 122.465 189.25 122.467 189.294 122.459C189.337 122.451 189.378 122.432 189.414 122.405C189.449 122.378 189.477 122.343 189.497 122.303C189.516 122.263 189.526 122.219 189.525 122.175C189.525 121.702 189.301 121.508 188.17 120.093C188.543 120.051 188.906 119.996 189.28 119.933C189.792 119.844 190.337 119.826 190.668 119.388C190.7 119.357 190.724 119.318 190.738 119.276C190.753 119.233 190.757 119.188 190.751 119.143C190.745 119.099 190.729 119.056 190.704 119.019C190.678 118.982 190.645 118.951 190.606 118.929Z" fill="#62A7FF"/>
<path d="M199.916 118.791C199.42 118.546 199.199 118.774 197.461 119.015C197.771 118.195 198.15 117.402 198.592 116.645C198.751 116.43 198.434 116.103 198.219 116.271C197.488 116.974 196.929 117.836 196.585 118.791C196.034 118.038 195.392 117.357 194.674 116.762C194.407 116.56 194.087 116.94 194.236 117.2C194.445 117.556 195.8 119.147 195.88 119.239C195.077 119.309 194.285 119.474 193.521 119.73C193.46 119.748 193.407 119.787 193.372 119.84C193.337 119.893 193.322 119.956 193.33 120.019C193.337 120.082 193.367 120.141 193.414 120.184C193.461 120.226 193.521 120.251 193.585 120.254C194.358 120.309 195.134 120.273 195.899 120.147C195.788 120.355 195.688 120.569 195.6 120.788C195.255 121.282 195.041 121.854 194.977 122.453C194.993 122.677 195.253 122.898 195.478 122.741C195.901 122.444 195.948 122.214 196.781 120.382C197.877 121.791 197.946 122.15 198.467 122.314C198.51 122.326 198.555 122.328 198.599 122.32C198.642 122.312 198.683 122.293 198.719 122.267C198.754 122.24 198.782 122.205 198.802 122.165C198.821 122.125 198.831 122.081 198.83 122.036C198.83 121.563 198.606 121.369 197.475 119.955C197.849 119.912 198.211 119.858 198.585 119.794C199.097 119.705 199.642 119.688 199.973 119.25C200.006 119.219 200.031 119.181 200.047 119.138C200.062 119.096 200.067 119.05 200.062 119.006C200.056 118.961 200.04 118.918 200.015 118.881C199.99 118.843 199.956 118.812 199.916 118.791Z" fill="#62A7FF"/>
<path d="M209.311 118.246C208.815 118.001 208.594 118.229 206.856 118.47C207.166 117.65 207.545 116.857 207.988 116.1C208.146 115.885 207.829 115.558 207.614 115.726C206.883 116.43 206.324 117.292 205.98 118.246C205.429 117.493 204.787 116.812 204.069 116.217C203.802 116.015 203.482 116.395 203.631 116.655C203.84 117.011 205.195 118.603 205.275 118.694C204.472 118.764 203.68 118.929 202.915 119.185C202.855 119.203 202.802 119.242 202.767 119.295C202.732 119.348 202.717 119.411 202.725 119.474C202.732 119.537 202.762 119.596 202.809 119.639C202.856 119.682 202.916 119.706 202.98 119.709C203.752 119.764 204.529 119.728 205.294 119.602C205.183 119.81 205.083 120.024 204.995 120.243C204.652 120.737 204.44 121.31 204.376 121.908C204.393 122.133 204.652 122.353 204.878 122.196C205.301 121.899 205.347 121.669 206.18 119.837C207.276 121.247 207.346 121.605 207.871 121.769C207.914 121.781 207.959 121.783 208.002 121.775C208.046 121.766 208.087 121.748 208.122 121.721C208.157 121.694 208.185 121.659 208.205 121.62C208.224 121.58 208.234 121.536 208.233 121.491C208.233 121.018 208.009 120.824 206.878 119.41C207.252 119.367 207.615 119.313 207.988 119.25C208.5 119.161 209.045 119.143 209.376 118.705C209.408 118.673 209.432 118.634 209.446 118.592C209.46 118.549 209.464 118.504 209.458 118.459C209.452 118.415 209.435 118.372 209.41 118.335C209.384 118.298 209.35 118.267 209.311 118.246Z" fill="#62A7FF"/>
<path d="M218.782 117.915C218.295 117.665 218.07 117.897 216.327 118.14C216.638 117.319 217.016 116.527 217.459 115.769C217.617 115.555 217.301 115.228 217.085 115.396C216.355 116.099 215.796 116.961 215.451 117.915C214.9 117.163 214.259 116.481 213.54 115.887C213.273 115.685 212.953 116.065 213.102 116.325C213.312 116.681 214.666 118.272 214.747 118.364C213.944 118.434 213.151 118.599 212.387 118.855C212.326 118.873 212.273 118.911 212.238 118.964C212.203 119.017 212.188 119.081 212.196 119.144C212.204 119.207 212.234 119.265 212.28 119.308C212.327 119.351 212.388 119.376 212.451 119.378C213.224 119.434 214 119.398 214.765 119.272C214.655 119.48 214.555 119.694 214.466 119.912C214.122 120.406 213.908 120.979 213.843 121.578C213.86 121.803 214.119 122.023 214.345 121.866C214.768 121.569 214.814 121.339 215.647 119.507C216.743 120.916 216.813 121.276 217.338 121.439C217.381 121.451 217.426 121.453 217.469 121.445C217.513 121.436 217.554 121.418 217.589 121.391C217.625 121.364 217.653 121.329 217.672 121.289C217.692 121.249 217.702 121.205 217.701 121.161C217.701 120.688 217.477 120.494 216.345 119.079C216.718 119.037 217.082 118.982 217.455 118.919C217.967 118.83 218.512 118.812 218.843 118.374C218.874 118.342 218.897 118.304 218.91 118.261C218.924 118.219 218.928 118.174 218.923 118.13C218.917 118.086 218.901 118.044 218.877 118.007C218.853 117.97 218.82 117.938 218.782 117.915Z" fill="#62A7FF"/>
<path d="M160.895 88.8194C160.172 88.6414 155.245 88.5338 155.151 88.5311C154.999 88.5356 154.855 88.5978 154.748 88.705C154.641 88.8122 154.579 88.9563 154.574 89.1078C154.202 91.7653 153.569 94.3797 152.684 96.9131C151.894 98.7955 150.777 100.523 149.385 102.016C148.257 99.1836 146.814 96.4868 145.082 93.977C144.727 93.2982 144.145 92.7654 143.438 92.4711C145.332 86.9228 146.439 81.1364 146.726 75.2808C146.838 74.401 146.827 73.5099 146.694 72.633C146.673 72.5634 146.629 72.5025 146.571 72.4592C146.512 72.4159 146.441 72.3926 146.368 72.3926C146.296 72.3926 146.225 72.4159 146.166 72.4592C146.107 72.5025 146.064 72.5634 146.043 72.633C145.764 73.5533 146.037 73.6004 145.637 77.6304C144.684 87.2237 142.451 91.4975 142.53 92.3964C135.214 93.2602 127.965 94.623 120.834 96.4752C120.766 96.4987 120.71 96.5472 120.677 96.6108C120.643 96.6744 120.635 96.7483 120.654 96.8176C120.673 96.8869 120.718 96.9464 120.779 96.9839C120.84 97.0215 120.913 97.0344 120.984 97.0199C122.505 96.7743 141.484 93.0665 143.064 93.4537C143.416 93.578 143.711 93.8243 143.897 94.1479C145.776 96.8705 147.335 99.8011 148.542 102.881C141.22 110.01 125.429 111.592 118.826 101.408C118.686 101.19 118.576 101.374 119.136 100.874C120.052 100.057 121.049 99.3045 121.902 98.4279C122.258 98.0657 121.849 97.4035 121.411 97.5744C119.587 96.841 110.464 95.2266 108.907 94.9471C108.827 94.9268 108.743 94.9249 108.662 94.9416C108.581 94.9583 108.505 94.9932 108.439 95.0435C108.374 95.0939 108.32 95.1584 108.283 95.2324C108.246 95.3063 108.226 95.3877 108.225 95.4704C108.215 96.6769 108.319 97.8816 108.535 99.0687C104.1 108.113 102.475 123.818 103.462 127.748C103.48 127.816 103.521 127.876 103.577 127.919C103.633 127.962 103.702 127.985 103.773 127.985C103.844 127.985 103.913 127.962 103.969 127.919C104.025 127.876 104.066 127.816 104.085 127.748C104.786 123.796 103.183 117.012 108.815 100.852C108.867 101.173 108.911 101.481 108.953 101.802C109.22 103.81 109.7 105.772 110.085 107.76C110.11 107.844 110.157 107.92 110.22 107.98C110.283 108.041 110.36 108.085 110.445 108.107C110.529 108.129 110.618 108.13 110.703 108.108C110.787 108.087 110.865 108.044 110.929 107.984C111.874 107.183 112.807 106.361 113.737 105.55C116.43 108.73 119.692 111.381 123.357 113.366C132.571 118.021 143.067 116.214 150.858 110.205C151.595 113.237 152.063 116.334 152.905 119.345C152.927 119.418 152.975 119.481 153.04 119.522C153.104 119.563 153.182 119.58 153.258 119.569C153.334 119.558 153.403 119.521 153.454 119.463C153.505 119.406 153.533 119.332 153.535 119.256C153.308 116.01 152.735 112.797 151.827 109.672C151.805 109.608 151.795 109.533 151.773 109.469C154.757 107.036 157.175 103.981 158.859 100.518C160.542 97.0554 161.451 93.2673 161.522 89.4175C161.531 89.3343 161.52 89.25 161.492 89.1714C161.463 89.0927 161.416 89.0217 161.356 88.9638C161.295 88.906 161.222 88.8629 161.142 88.8379C161.062 88.8128 160.978 88.8065 160.895 88.8194Z" fill="#141414"/>
<path d="M131.807 119.421C131.753 119.369 131.688 119.329 131.616 119.305C131.545 119.281 131.469 119.274 131.394 119.283C131.32 119.292 131.248 119.318 131.184 119.359C131.121 119.399 131.067 119.453 131.027 119.517C130.244 120.916 128.348 124.696 128.155 126.37C128.115 126.726 128.631 126.815 128.785 126.541C129.675 124.958 129.64 123.834 131.551 120.583C132.902 121.976 133.972 123.046 134.711 123.979C135.007 124.449 135.383 124.864 135.821 125.206C135.872 125.235 135.929 125.25 135.988 125.249C136.046 125.249 136.104 125.234 136.154 125.205C136.205 125.176 136.247 125.134 136.277 125.084C136.306 125.033 136.322 124.976 136.323 124.918C136.274 123.85 135.137 122.848 134.454 122.11C133.609 121.196 132.711 120.298 131.807 119.421Z" fill="#141414"/>
<path d="M176.042 36.1069C177.471 37.4917 178.432 38.97 179.501 38.8508C179.545 38.8482 179.588 38.8349 179.626 38.8118C179.663 38.7888 179.695 38.7568 179.717 38.7187C179.739 38.6807 179.751 38.6377 179.753 38.5936C179.754 38.5496 179.745 38.5058 179.726 38.4663C179.326 37.8877 178.856 37.3606 178.327 36.8972C176.895 35.3451 174.537 32.9625 172.615 32.1455C172.241 31.9871 171.826 32.4125 172.155 32.7436C173.355 33.9558 174.811 34.9125 176.042 36.1069Z" fill="#141414"/>
<path d="M173.416 37.6775C175.169 39.5465 175.285 40.1402 175.967 40.2826C176.012 40.2944 176.059 40.296 176.104 40.2871C176.149 40.2783 176.192 40.2593 176.229 40.2316C176.266 40.2038 176.296 40.168 176.318 40.1269C176.339 40.0858 176.35 40.0404 176.352 39.9942C176.388 39.4282 175.907 38.9262 175.561 38.5097C174.302 36.9002 172.787 35.5082 171.077 34.389C171.011 34.3523 170.933 34.3407 170.858 34.3564C170.783 34.3722 170.717 34.4141 170.67 34.4746C170.624 34.5352 170.601 34.6103 170.605 34.6865C170.609 34.7627 170.64 34.8349 170.693 34.8901C171.563 35.8468 172.521 36.7235 173.416 37.6775Z" fill="#141414"/>
<path d="M122.827 42.5349C122.979 42.5175 123.119 42.4449 123.221 42.3307C123.323 42.2166 123.379 42.0689 123.379 41.9159C123.379 41.7628 123.323 41.6152 123.221 41.501C123.119 41.3869 122.979 41.3142 122.827 41.2969C122.675 41.3142 122.535 41.3869 122.433 41.501C122.331 41.6152 122.275 41.7628 122.275 41.9159C122.275 42.0689 122.331 42.2166 122.433 42.3307C122.535 42.4449 122.675 42.5175 122.827 42.5349Z" fill="#141414"/>
<path d="M124.109 39.0764C124.062 39.0502 124.009 39.04 123.956 39.0471C123.904 39.0543 123.855 39.0785 123.817 39.1161C123.78 39.1536 123.755 39.2025 123.748 39.2551C123.741 39.3077 123.751 39.3612 123.778 39.4075C124.401 40.3865 126.119 42.1665 126.692 43.1552C126.781 43.3039 126.863 43.2362 126.628 43.2514C126.181 43.2423 125.735 43.203 125.293 43.1339C124.813 43.0689 124.813 43.837 125.293 43.8922C125.736 43.9417 126.182 43.9631 126.628 43.9563C126.868 43.9879 127.111 43.931 127.312 43.7961C127.795 43.3813 127.32 42.7939 127.055 42.4183C126.272 41.1433 125.276 40.0128 124.109 39.0764Z" fill="#141414"/>
<path d="M123.393 44.9265C123.559 46.2926 124.536 48.5345 126.265 48.2364C128.966 47.7718 128.608 43.8905 127.718 44.2545C127.127 44.5248 126.495 44.6945 125.849 44.7565C125.153 44.7585 124.459 44.6905 123.778 44.5536C123.726 44.5448 123.673 44.5483 123.623 44.5638C123.574 44.5792 123.528 44.6062 123.491 44.6425C123.453 44.6789 123.425 44.7235 123.408 44.7728C123.391 44.8222 123.386 44.8748 123.393 44.9265ZM127.589 45.1721C127.689 45.6717 127.588 46.1903 127.308 46.616C127.028 47.0416 126.592 47.3401 126.094 47.4469C125.217 47.5804 124.465 46.1725 124.258 45.3003C125.343 45.6919 126.538 45.6459 127.589 45.1721Z" fill="#141414"/>
<path d="M127.44 39.6836C127.29 39.6836 127.146 39.7432 127.04 39.8494C126.933 39.9555 126.874 40.0995 126.874 40.2496C126.874 40.3998 126.933 40.5437 127.04 40.6499C127.146 40.756 127.29 40.8157 127.44 40.8157C127.59 40.8157 127.734 40.756 127.84 40.6499C127.946 40.5437 128.006 40.3998 128.006 40.2496C128.006 40.0995 127.946 39.9555 127.84 39.8494C127.734 39.7432 127.59 39.6836 127.44 39.6836Z" fill="#141414"/>
<path d="M180.313 33.8652C178.809 32.336 176.966 31.1836 174.932 30.5019C174.819 30.4725 174.698 30.485 174.593 30.537C174.488 30.589 174.406 30.6771 174.36 30.7852C174.315 30.8933 174.31 31.014 174.346 31.1255C174.383 31.2369 174.458 31.3315 174.558 31.3919C176.084 32.2588 177.55 33.2269 178.946 34.2897C181.941 36.7417 184.323 39.9448 182.202 43.1835C180.339 46.0315 177.37 46.4365 175.252 51.0209C173.608 50.5084 171.916 50.1684 170.202 50.0063C169.055 46.0315 168.984 44.0593 172.315 40.728C172.419 40.6203 172.477 40.4768 172.477 40.3275C172.477 40.1782 172.419 40.0347 172.315 39.927C171.166 38.6811 169.803 37.6506 168.291 36.8841C167.98 36.7355 167.574 37.1511 167.885 37.4074C169.02 38.2949 170.097 39.2542 171.11 40.2794C169.901 41.359 169.009 42.7468 168.529 44.2942C168.123 46.1763 168.26 48.1349 168.924 49.9422C168.625 49.9422 168.501 49.8923 167.905 50.4432C166.814 46.5415 166.697 43.5333 169.575 40.2794C169.287 40.0018 168.977 39.7348 168.678 39.4784C164.888 43.9204 151.307 60.2457 148.275 63.9534C133.439 54.4732 112.879 63.1916 108.349 79.3816C107.553 79.4235 106.782 79.6779 106.117 80.1185C105.727 80.4122 105.89 80.3855 105.786 80.2787C100.513 74.0373 94.6138 68.3523 88.182 63.3126C87.6578 62.9077 86.9013 63.6215 87.4344 64.0602C93.7088 69.0963 99.5256 74.6773 104.817 80.738C103.565 83.5477 102.498 86.4366 101.625 89.3861C91.0576 85.7567 73.5273 77.7271 70.7674 66.8255C70.1906 64.6434 70.3329 62.3335 71.1732 60.2388C72.0135 58.144 73.507 56.3761 75.4319 55.1976C78.5905 53.3197 83.5585 52.2019 87.1443 52.0052C99.4352 51.3324 107.249 51.0262 117.82 55.5928C119.943 56.6532 122.358 56.9763 124.685 56.5113C130.585 55.5857 132.534 51.6287 136.433 49.4322C139.497 47.8125 142.997 47.2085 146.426 47.7075C149.856 48.2064 153.038 49.7825 155.513 52.2081C155.578 52.2733 155.667 52.3099 155.759 52.3099C155.851 52.3099 155.939 52.2733 156.004 52.2081C156.07 52.143 156.106 52.0546 156.106 51.9625C156.106 51.8703 156.07 51.782 156.004 51.7168C150.634 45.3533 140.292 44.8638 133.892 49.8594C131.98 51.3519 130.316 53.1907 128.116 54.2907C125.807 55.4961 123.16 55.8907 120.599 55.4112C117.581 54.6992 114.564 52.0693 105.202 50.9274C98.3761 50.0944 83.635 50.1611 76.5123 53.3304C74.4571 54.1548 72.6805 55.5498 71.3922 57.3508C70.1038 59.1518 69.3574 61.2838 69.241 63.4951C68.6163 76.6538 89.3328 86.4438 101.836 90.5289C101.968 90.5627 102.108 90.5437 102.225 90.4758C102.343 90.4079 102.429 90.2966 102.466 90.1657C102.489 90.0767 102.519 89.9877 102.54 89.8987C104.379 92.8509 107.064 93.5477 110.228 94.33C111.83 94.7261 113.61 94.9157 115.087 94.0203C116.511 93.157 116.636 91.8158 116.026 91.0735C116.376 90.8696 116.676 90.5904 116.905 90.2561C117.134 89.9217 117.286 89.5407 117.35 89.1404C117.375 88.8759 117.345 88.609 117.26 88.357C117.175 88.1051 117.039 87.8738 116.859 87.6782C117.126 87.4958 117.348 87.255 117.509 86.974C117.67 86.6931 117.764 86.3793 117.786 86.0564C117.808 85.7335 117.756 85.4099 117.634 85.11C117.512 84.8102 117.324 84.542 117.083 84.3256C117.328 84.1176 117.512 83.8473 117.615 83.5434C117.719 83.2395 117.738 82.9132 117.671 82.5991C117.605 82.285 117.454 81.9948 117.236 81.7593C117.018 81.5238 116.74 81.3517 116.432 81.2613C116.1 81.2049 115.761 81.201 115.428 81.2497C115.883 80.5778 116.631 78.2299 117.233 77.0667C124.576 62.8534 148.446 65.1986 152.584 78.8067C152.667 79.079 152.846 78.9001 152.157 79.2445C151.069 79.7892 149.916 80.2921 148.864 80.9213C148.438 81.1776 148.661 81.935 149.131 81.8709C150.705 83.0075 158.832 86.7134 160.577 87.5198C160.649 87.5607 160.73 87.5849 160.812 87.5906C160.895 87.5962 160.978 87.5832 161.055 87.5524C161.132 87.5216 161.201 87.4739 161.257 87.4128C161.313 87.3517 161.354 87.2787 161.378 87.1994C161.825 85.1467 162.107 83.0616 162.221 80.964C162.469 78.9357 162.529 76.8754 162.616 74.8346C162.633 74.451 162.171 74.2694 161.848 74.4296L158.517 76.0948C157.079 73.1994 155.266 70.5061 153.124 68.0848C164.312 54.4393 162.647 56.3733 166.495 52.1236C164.096 55.2222 162.026 58.563 160.321 62.0916C159.334 64.1386 158.663 65.5323 158.808 66.4161C158.818 66.4523 158.837 66.4857 158.862 66.5138C158.887 66.5419 158.919 66.564 158.953 66.5784C158.988 66.5927 159.026 66.599 159.064 66.5968C159.101 66.5946 159.138 66.584 159.171 66.5656C160.215 65.7842 160.26 63.917 163.602 58.2797C165.113 55.7712 166.771 53.3542 168.567 51.0413C170.855 51.1236 173.121 51.5149 175.304 52.2046C175.331 56.9525 174.971 61.6948 174.226 66.384C173.237 72.0587 171.676 78.2629 166.56 81.0334C165.517 81.5298 164.423 81.9115 163.298 82.1718C163.074 82.2367 163.02 82.6435 163.298 82.6844C165.303 82.9772 167.378 81.8104 168.882 80.592C175.557 75.1915 176.342 60.4869 176.42 51.8165C176.42 51.7139 176.391 51.6134 176.336 51.5266C176.281 51.4398 176.203 51.3703 176.11 51.3261C178.757 46.6785 181.327 46.7391 183.296 43.5208C185.471 39.9555 182.967 36.2833 180.313 33.8652ZM116.474 82.307C117.213 82.8606 116.432 83.8022 115.876 84.0799C115.792 84.131 115.727 84.2078 115.691 84.2988C115.654 84.3899 115.648 84.4903 115.674 84.5851C115.699 84.6799 115.754 84.764 115.831 84.8248C115.908 84.8857 116.002 84.92 116.1 84.9227C116.949 84.8969 117.417 86.5247 115.737 87.3791C115.656 87.4289 115.594 87.5035 115.559 87.5918C115.525 87.6801 115.519 87.7774 115.545 87.8688C115.57 87.9603 115.624 88.0411 115.7 88.099C115.775 88.1569 115.867 88.1888 115.962 88.1899C116.528 88.2157 116.515 89.1289 116.346 89.4822C116.035 89.9958 115.588 90.4135 115.055 90.6891C114.984 90.733 114.928 90.7965 114.893 90.8717C114.857 90.9469 114.845 91.0307 114.856 91.113C114.867 91.1953 114.902 91.2726 114.956 91.3355C115.011 91.3985 115.082 91.4444 115.161 91.4678C116.095 91.8238 115.183 93.7044 112.812 93.8067C111.462 93.7702 110.127 93.5104 108.861 93.0378C107.683 92.749 106.555 92.2807 105.519 91.6494C104.417 90.8793 103.513 89.8584 102.882 88.6705C103.63 86.2325 104.529 83.8433 105.573 81.5167C106.285 81.1821 106.502 80.3989 108.307 80.3428C108.435 80.9409 109.032 81.2506 109.651 81.442C109.401 82.2768 113.179 82.388 114.446 82.307C114.948 82.275 116.016 81.9644 116.474 82.307Z" fill="#141414"/>
<path d="M201.507 20.4942C201.132 20.0509 200.693 19.6657 200.205 19.3514C199.671 18.9136 195.965 15.924 195.88 15.86C198.858 11.143 198.913 11.9707 196.318 10.2013C196.121 10.0581 195.877 9.99504 195.635 10.0248C195.394 10.0545 195.172 10.1749 195.016 10.3615C188.635 16.8158 182.854 23.2167 176.843 30.0305C180.581 31.8105 182.522 34.9745 184.712 36.3193C185.713 36.9334 187.24 38.2274 188.47 37.4763C189.782 36.6753 190.522 35.1623 191.471 34.0053C192.39 32.8857 193.331 31.7758 194.258 30.6633C194.322 30.5953 194.371 30.5136 194.4 30.4242C194.43 30.3348 194.438 30.2399 194.426 30.1467C194.414 30.0535 194.381 29.9642 194.329 29.8854C194.278 29.8066 194.21 29.7403 194.129 29.6915C192.324 28.5727 190.51 27.4495 188.705 26.3175C189.328 25.5271 190.05 24.4921 190.67 23.7018C192.741 24.8766 194.751 26.2053 196.895 27.2359C197.039 27.3127 197.207 27.3323 197.366 27.2907C197.524 27.2492 197.661 27.1495 197.749 27.0117C198.993 25.404 200.151 23.7324 201.22 22.0036C201.54 21.5542 201.835 21.0202 201.507 20.4942Z" fill="#141414"/>
<path d="M225.392 92.5783C225.446 90.5994 225.168 88.6253 224.57 86.7382C224.334 85.9876 223.93 85.3009 223.387 84.7309C222.845 84.1609 222.18 83.7226 221.442 83.4496C220.574 83.1942 221.431 83.155 200.397 83.3108C193.61 83.3606 189.192 82.0256 188.79 91.3208C188.523 97.4698 188.683 106.795 188.812 110.189C190.948 110.146 202.105 109.949 202.767 109.971C203.943 110.01 204.369 110.272 204.369 109.96C204.625 107.793 205.564 99.458 205.639 98.8075C205.088 98.6397 204.579 98.3567 204.146 97.9771C203.713 97.5975 203.366 97.13 203.128 96.6059C202.889 96.0817 202.765 95.5128 202.764 94.937C202.762 94.3612 202.884 93.7917 203.119 93.2663C203.108 93.2316 203.108 93.1943 203.119 93.1595C203.572 91.5273 206.214 90.0196 208.5 91.0351C209.269 91.365 209.921 91.9186 210.371 92.6241C210.821 93.3295 211.048 94.154 211.022 94.9903C210.997 95.8266 210.721 96.6359 210.229 97.3129C209.738 97.9899 209.054 98.5032 208.266 98.7861C208.906 102.641 209.654 106.11 210.636 109.911C212.802 109.839 214.969 109.946 217.117 110.231C221.217 110.788 222.859 112.348 223.272 117.084C226.284 115.076 225.466 110.62 225.509 106.055C225.552 101.558 225.545 97.063 225.392 92.5783Z" fill="#62A7FF"/>
<path d="M131.337 44.0418C130.564 40.8577 129.25 37.8303 127.451 35.0919C128.66 34.0714 129.617 32.7855 130.248 31.3343C131.566 28.2113 131.071 24.7359 130.483 23.9669C129.924 23.2353 129.159 23.6252 128.731 24.2553C127.663 25.8252 125.794 26.7775 124.098 27.5118C119.235 29.6131 117.038 28.093 113.292 31.9618C111.807 33.4979 111.641 35.7416 111.926 37.7708C112.153 39.3025 112.651 40.7813 113.399 42.1372C113.61 42.6286 113.863 43.1004 114.158 43.5469C112.152 45.1062 113.123 48.1803 116.346 48.1482C116.679 49.5471 116.917 50.9669 117.058 52.398C117.057 52.8921 117.1 53.3853 117.186 53.8718C117.214 53.9689 117.274 54.0541 117.354 54.1148C117.435 54.1754 117.534 54.2082 117.635 54.2082C117.736 54.2082 117.834 54.1754 117.915 54.1148C117.996 54.0541 118.055 53.9689 118.083 53.8718C118.357 52.5911 117.617 48.8727 117.229 47.9978C119.098 47.3054 118.957 45.4079 118.276 45.6838C117.635 45.9401 117.433 46.7438 116.727 46.8906C116.367 46.9668 115.994 46.9572 115.638 46.8626C115.283 46.768 114.954 46.591 114.68 46.346C114.476 46.0938 114.376 45.7738 114.4 45.4507C114.424 45.1276 114.57 44.8256 114.808 44.606C115.698 43.7658 117.383 44.5508 117.584 43.6662C117.892 42.3749 117.844 41.0244 117.445 39.7582C120.899 39.2979 124.151 37.8647 126.82 35.6259C127.609 37.0747 128.318 38.5653 128.944 40.091C129.762 42.1425 131.213 45.8066 130.101 47.5012C129.338 48.6582 126.89 49.299 125.531 49.5615C123.866 49.8828 123.323 49.6683 122.915 50.1169C122.858 50.1756 122.827 50.2541 122.827 50.3358C122.827 50.4175 122.858 50.496 122.915 50.5548C123.398 51.0647 124.428 50.8218 125.051 50.747C125.594 50.6776 126.132 50.5778 126.663 50.448C126.779 51.0465 126.962 51.6301 127.208 52.1879C127.363 52.8303 127.692 53.4177 128.158 53.886C128.219 53.9198 128.287 53.9374 128.356 53.9371C128.425 53.9367 128.493 53.9185 128.553 53.8841C128.613 53.8497 128.664 53.8003 128.699 53.7408C128.734 53.6812 128.754 53.6135 128.755 53.5443C128.635 52.9341 128.395 52.3536 128.051 51.8355C127.816 51.313 127.635 50.7675 127.368 50.2664C127.389 50.2664 127.4 50.2557 127.421 50.2557C130.887 49.2011 132.208 47.762 131.337 44.0418ZM126.308 33.4178C126.243 33.417 126.18 33.4014 126.122 33.3723C126.064 33.3432 126.014 33.3013 125.975 33.2499C125.935 33.1984 125.909 33.1386 125.896 33.0752C125.883 33.0118 125.885 32.9463 125.902 32.8838C126.064 32.3899 126.502 32.106 126.831 31.7197C127.552 30.8246 128.109 29.8089 128.476 28.7195C128.632 28.1953 128.654 27.6738 128.763 27.1504C128.785 27.0791 128.827 27.0155 128.884 26.9673C128.941 26.919 129.011 26.888 129.085 26.8779C129.159 26.8678 129.235 26.879 129.302 26.9103C129.37 26.9415 129.428 26.9915 129.468 27.0543C130.232 28.6563 128.895 31.0593 127.792 32.4246C127.424 32.8794 126.959 33.4419 126.308 33.4178Z" fill="#141414"/>
<path d="M120.927 41.542C121.083 41.1442 121.276 40.7619 121.504 40.4001C121.761 40.0379 122.207 39.8759 122.443 39.5243C122.766 39.0446 121.855 38.3042 120.767 39.8981C120.6 40.1216 120.485 40.3792 120.429 40.6525C120.374 40.9258 120.38 41.208 120.446 41.4788C120.461 41.5275 120.49 41.5708 120.529 41.6036C120.568 41.6364 120.616 41.6574 120.666 41.664C120.717 41.6707 120.768 41.6627 120.814 41.6411C120.861 41.6195 120.9 41.5851 120.927 41.542Z" fill="#141414"/>
<path d="M125.305 38.0521C125.939 37.8529 126.61 37.7982 127.269 37.8919C127.589 37.9551 128.178 37.9337 127.995 37.4469C127.728 36.7349 125.672 36.6841 125.048 37.7245C125.028 37.7635 125.02 37.8073 125.024 37.8509C125.028 37.8945 125.044 37.9361 125.071 37.9706C125.098 38.0051 125.135 38.0311 125.176 38.0455C125.218 38.06 125.262 38.0622 125.305 38.0521Z" fill="#141414"/>
</g>
<defs>
<clipPath id="clip0_2466_52300">
<rect width="312" height="137" rx="20" fill="white"/>
</clipPath>
</defs>
</svg>
