<svg width="28" height="28" viewBox="0 0 28 28" fill="none" xmlns="http://www.w3.org/2000/svg">
<rect x="0.5" y="0.5" width="27" height="27" rx="13.5" stroke="#2065F1"/>
<path d="M14.0023 7.11374C16.2468 7.11374 16.5102 7.12375 17.3974 7.16377C18.2178 7.20046 18.6614 7.3372 18.9582 7.45392C19.3518 7.60734 19.6319 7.78743 19.9254 8.08092C20.2189 8.37441 20.4023 8.65456 20.5524 9.0481C20.6658 9.34492 20.8059 9.78849 20.8425 10.6089C20.8826 11.4961 20.8926 11.7595 20.8926 14.0041C20.8926 16.2486 20.8826 16.512 20.8425 17.3992C20.8059 18.2196 20.6691 18.6632 20.5524 18.96C20.399 19.3536 20.2189 19.6337 19.9254 19.9272C19.6319 20.2207 19.3518 20.4041 18.9582 20.5542C18.6614 20.6676 18.2178 20.8077 17.3974 20.8443C16.5102 20.8844 16.2468 20.8944 14.0023 20.8944C11.7577 20.8944 11.4943 20.8844 10.6071 20.8443C9.78669 20.8077 9.34312 20.6709 9.04629 20.5542C8.65275 20.4008 8.3726 20.2207 8.07911 19.9272C7.78563 19.6337 7.6022 19.3536 7.45212 18.96C7.33872 18.6632 7.19865 18.2196 7.16196 17.3992C7.12194 16.512 7.11194 16.2486 7.11194 14.0041C7.11194 11.7595 7.12194 11.4961 7.16196 10.6089C7.19865 9.78849 7.33539 9.34492 7.45212 9.0481C7.60553 8.65456 7.78563 8.37441 8.07911 8.08092C8.3726 7.78743 8.65275 7.604 9.04629 7.45392C9.34312 7.34053 9.78669 7.20046 10.6071 7.16377C11.4943 7.12041 11.7611 7.11374 14.0023 7.11374ZM14.0023 5.59961C11.721 5.59961 11.4342 5.60961 10.5371 5.64964C9.64328 5.68966 9.03295 5.83307 8.49934 6.03984C7.94571 6.25329 7.4788 6.54344 7.01188 7.01036C6.54497 7.47727 6.25815 7.94752 6.04137 8.49781C5.83459 9.03142 5.69118 9.64175 5.65116 10.5389C5.61114 11.4327 5.60114 11.7195 5.60114 14.0007C5.60114 16.2819 5.61114 16.5687 5.65116 17.4659C5.69118 18.3597 5.83459 18.97 6.04137 19.507C6.25481 20.0606 6.54497 20.5275 7.01188 20.9944C7.4788 21.4613 7.94905 21.7482 8.49934 21.9649C9.03295 22.1717 9.64328 22.3151 10.5404 22.3551C11.4376 22.3952 11.721 22.4052 14.0056 22.4052C16.2901 22.4052 16.5736 22.3952 17.4708 22.3551C18.3646 22.3151 18.9749 22.1717 19.5118 21.9649C20.0655 21.7515 20.5324 21.4613 20.9993 20.9944C21.4662 20.5275 21.753 20.0573 21.9698 19.507C22.1766 18.9734 22.32 18.363 22.36 17.4659C22.4 16.5687 22.41 16.2853 22.41 14.0007C22.41 11.7162 22.4 11.4327 22.36 10.5356C22.32 9.64175 22.1766 9.03142 21.9698 8.49447C21.7564 7.94085 21.4662 7.47393 20.9993 7.00702C20.5324 6.54011 20.0621 6.25329 19.5118 6.03651C18.9782 5.82973 18.3679 5.68632 17.4708 5.6463C16.5703 5.60961 16.2835 5.59961 14.0023 5.59961Z" fill="#2065F1"/>
<path d="M14.0023 7.11374C16.2468 7.11374 16.5102 7.12375 17.3974 7.16377C18.2178 7.20046 18.6614 7.3372 18.9582 7.45392C19.3518 7.60734 19.6319 7.78743 19.9254 8.08092C20.2189 8.37441 20.4023 8.65456 20.5524 9.0481C20.6658 9.34492 20.8059 9.78849 20.8425 10.6089C20.8826 11.4961 20.8926 11.7595 20.8926 14.0041C20.8926 16.2486 20.8826 16.512 20.8425 17.3992C20.8059 18.2196 20.6691 18.6632 20.5524 18.96C20.399 19.3536 20.2189 19.6337 19.9254 19.9272C19.6319 20.2207 19.3518 20.4041 18.9582 20.5542C18.6614 20.6676 18.2178 20.8077 17.3974 20.8443C16.5102 20.8844 16.2468 20.8944 14.0023 20.8944C11.7577 20.8944 11.4943 20.8844 10.6071 20.8443C9.78669 20.8077 9.34312 20.6709 9.04629 20.5542C8.65275 20.4008 8.3726 20.2207 8.07911 19.9272C7.78563 19.6337 7.6022 19.3536 7.45212 18.96C7.33872 18.6632 7.19865 18.2196 7.16196 17.3992C7.12194 16.512 7.11194 16.2486 7.11194 14.0041C7.11194 11.7595 7.12194 11.4961 7.16196 10.6089C7.19865 9.78849 7.33539 9.34492 7.45212 9.0481C7.60553 8.65456 7.78563 8.37441 8.07911 8.08092C8.3726 7.78743 8.65275 7.604 9.04629 7.45392C9.34312 7.34053 9.78669 7.20046 10.6071 7.16377C11.4943 7.12041 11.7611 7.11374 14.0023 7.11374Z" fill="#2065F1"/>
<path d="M14.0022 9.68945C11.6209 9.68945 9.68658 11.6205 9.68658 14.0051C9.68658 16.3897 11.6176 18.3207 14.0022 18.3207C16.3868 18.3207 18.3178 16.3897 18.3178 14.0051C18.3178 11.6205 16.3868 9.68945 14.0022 9.68945ZM14.0022 16.8032C12.4547 16.8032 11.2007 15.5492 11.2007 14.0017C11.2007 12.4542 12.4547 11.2003 14.0022 11.2003C15.5497 11.2003 16.8037 12.4542 16.8037 14.0017C16.8037 15.5492 15.5497 16.8032 14.0022 16.8032Z" fill="#F5F5F5"/>
<path d="M18.4879 10.5222C19.0442 10.5222 19.4951 10.0713 19.4951 9.51501C19.4951 8.95875 19.0442 8.50781 18.4879 8.50781C17.9317 8.50781 17.4807 8.95875 17.4807 9.51501C17.4807 10.0713 17.9317 10.5222 18.4879 10.5222Z" fill="#2065F1"/>
</svg>
