<svg width="28" height="28" viewBox="0 0 28 28" fill="none" xmlns="http://www.w3.org/2000/svg">
<rect x="0.5" y="0.5" width="27" height="27" rx="13.5" stroke="#2065F1"/>
<path d="M20.5632 6.30078H7.43681C7.1353 6.30078 6.84615 6.42055 6.63295 6.63375C6.41976 6.84694 6.29999 7.1361 6.29999 7.4376V20.564C6.29999 20.8655 6.41976 21.1546 6.63295 21.3678C6.84615 21.581 7.1353 21.7008 7.43681 21.7008H20.5632C20.8647 21.7008 21.1538 21.581 21.367 21.3678C21.5802 21.1546 21.7 20.8655 21.7 20.564V7.4376C21.7 7.1361 21.5802 6.84694 21.367 6.63375C21.1538 6.42055 20.8647 6.30078 20.5632 6.30078ZM10.89 19.4197H8.5747V12.0651H10.89V19.4197ZM9.73077 11.0459C9.46813 11.0444 9.21182 10.9652 8.99418 10.8182C8.77653 10.6712 8.60732 10.463 8.50788 10.2199C8.40845 9.97679 8.38325 9.70969 8.43547 9.4523C8.4877 9.1949 8.61499 8.95874 8.8013 8.77362C8.98761 8.58851 9.22459 8.46273 9.48231 8.41216C9.74004 8.36159 10.007 8.3885 10.2494 8.4895C10.4919 8.59049 10.699 8.76104 10.8446 8.97962C10.9902 9.1982 11.0678 9.45502 11.0676 9.71766C11.07 9.89349 11.0371 10.068 10.9707 10.2309C10.9043 10.3937 10.8058 10.5415 10.681 10.6654C10.5563 10.7894 10.4078 10.887 10.2446 10.9523C10.0813 11.0177 9.90658 11.0495 9.73077 11.0459ZM19.4242 19.4261H17.1099V15.4082C17.1099 14.2232 16.6062 13.8575 15.956 13.8575C15.2694 13.8575 14.5957 14.3751 14.5957 15.4381V19.4261H12.2803V12.0704H14.5069V13.0896H14.5368C14.7604 12.6372 15.5432 11.864 16.7378 11.864C18.0297 11.864 19.4253 12.6308 19.4253 14.8767L19.4242 19.4261Z" fill="#2065F1"/>
</svg>
