<svg width="138" height="40" viewBox="0 0 138 40" fill="none" xmlns="http://www.w3.org/2000/svg">
<path d="M117.433 20.0064C115.829 20.1153 114.593 20.7145 113.819 21.5499V27.0883H110.721V17.1372H113.413L113.745 19.1166C114.409 17.9544 115.349 17.0283 116.935 16.9375L117.433 20.0064Z" fill="#262829"/>
<path d="M108.351 14.1759C108.351 15.1565 107.577 15.8102 106.581 15.8102C105.604 15.8102 104.792 15.1565 104.792 14.1759C104.792 13.1772 105.604 12.5234 106.581 12.5234C107.577 12.5234 108.351 13.1772 108.351 14.1759ZM108.112 27.0869H105.032V17.1358H108.112V27.0869Z" fill="#262829"/>
<path d="M99.4175 24.3452V22.2206C96.9464 22.5474 96.2825 23.2556 96.2825 24.1273C96.2825 24.781 96.7251 25.126 97.4074 25.126C98.1082 25.126 98.772 24.8536 99.4175 24.3452ZM102.479 27.0872H99.7863L99.565 25.8342C98.6798 26.6877 97.6287 27.2869 96.1719 27.2869C94.4569 27.2869 93.2397 26.3245 93.2397 24.5268C93.2397 22.1843 95.1945 21.0947 99.399 20.7497V20.55C99.399 19.6602 98.8458 19.2788 97.7209 19.2788C96.5407 19.2788 95.3973 19.5694 94.2724 20.0233L93.9036 17.7353C95.1207 17.2814 96.4669 16.9727 98.1819 16.9727C101.059 16.9727 102.479 17.8806 102.479 20.4047V27.0872Z" fill="#262829"/>
<path d="M92.5327 18.2074C92.5327 21.1854 90.2829 22.7108 86.9266 22.7108H85.9492V27.0871H82.6483V13.9219H87.0926C90.4673 13.9219 92.5327 15.3564 92.5327 18.2074ZM89.3239 18.2619C89.3239 17.0089 88.4941 16.3733 86.8897 16.3733H85.9124V20.2593H86.816C88.4203 20.2593 89.3239 19.6238 89.3239 18.2619Z" fill="#262829"/>
<path d="M80.4809 26.1622C79.3376 26.8523 77.9176 27.2881 76.2579 27.2881C73.123 27.2881 70.8732 25.6901 70.8732 22.1491C70.8732 18.8987 72.9754 16.9375 75.8154 16.9375C79.061 16.9375 80.4809 19.2074 80.4809 22.0765C80.4809 22.3852 80.4625 22.6939 80.444 22.8755H73.9159C74.1003 24.4734 75.133 25.0908 76.6268 25.0908C77.8439 25.0908 78.9872 24.6732 80.149 24.0195L80.4809 26.1622ZM75.7416 18.8987C74.7642 18.8987 74.0266 19.6432 73.8975 21.1685H77.5304C77.4197 19.6795 76.8112 18.8987 75.7416 18.8987Z" fill="#262829"/>
<path d="M70.1781 20.0064C68.5737 20.1153 67.3382 20.7145 66.5637 21.5499V27.0883H63.4656V17.1372H66.158L66.4899 19.1166C67.1538 17.9544 68.0943 17.0283 69.6802 16.9375L70.1781 20.0064Z" fill="#262829"/>
<path d="M57.9429 24.3452V22.2206C55.4718 22.5474 54.808 23.2556 54.808 24.1273C54.808 24.781 55.2505 25.126 55.9329 25.126C56.6336 25.126 57.2975 24.8536 57.9429 24.3452ZM61.0041 27.0872H58.3117L58.0905 25.8342C57.2053 26.6877 56.1542 27.2869 54.6973 27.2869C52.9823 27.2869 51.7652 26.3245 51.7652 24.5268C51.7652 22.1843 53.7199 21.0947 57.9245 20.7497V20.55C57.9245 19.6602 57.3713 19.2788 56.2464 19.2788C55.0661 19.2788 53.9228 19.5694 52.7979 20.0233L52.4291 17.7353C53.6462 17.2814 54.9924 16.9727 56.7074 16.9727C59.5842 16.9727 61.0041 17.8806 61.0041 20.4047V27.0872Z" fill="#262829"/>
<path d="M50.2763 26.3073C49.1698 26.9066 47.8236 27.3061 46.1824 27.3061C42.0147 27.3061 39.4514 24.6912 39.4514 20.5328C39.4514 16.4471 42.1254 13.7051 46.3299 13.7051C47.8421 13.7051 49.0407 14.0138 50.0734 14.5585L49.6124 17.4821C48.7457 16.8829 47.7499 16.4108 46.4959 16.4108C44.1907 16.4108 42.7708 17.9724 42.7708 20.5147C42.7708 23.0751 44.2645 24.6004 46.5696 24.6004C47.7499 24.6004 48.801 24.2009 49.8521 23.6017L50.2763 26.3073Z" fill="#262829"/>
<path d="M15.1779 31.9041L15.1785 31.9047C16.8262 33.6572 19.183 34.7546 21.7997 34.7546C23.9578 34.7546 25.9387 34.008 27.4913 32.7631C27.7632 32.5455 28.0216 32.3121 28.2653 32.065C31.2071 29.2314 33.0337 25.2786 33.0337 20.9058C33.0347 12.2992 25.9614 5.31983 17.227 5.29693C8.52556 5.27453 1.40232 12.213 1.3346 20.7822C1.33075 21.2703 1.34991 21.7531 1.39084 22.2301L0.125585 22.9007C0.0762046 22.9269 0.045265 22.9774 0.0448039 23.0327C0.0443941 23.0879 0.0745142 23.1389 0.123485 23.1659L4.70889 25.687C4.75576 25.7128 4.81287 25.7126 4.85954 25.6865C4.90621 25.6604 4.93566 25.6122 4.93725 25.5594L5.08513 20.5302C5.08672 20.4762 5.05901 20.4255 5.01234 20.3971C4.96568 20.3688 4.90723 20.367 4.85893 20.3926L3.87121 20.9158C3.87115 20.9125 3.87115 20.9091 3.87115 20.9058C3.87115 13.7106 9.75731 7.86868 17.0465 7.7959C24.4483 7.72215 30.4662 13.5599 30.4971 20.8495C30.5011 21.787 30.405 22.7014 30.2193 23.5833C29.683 26.1292 28.3969 28.4049 26.598 30.1765C26.5069 30.2661 26.4142 30.3544 26.3205 30.4413C25.241 31.4006 23.8215 31.8344 22.5129 31.9586C21.2001 32.0831 20.0255 31.8937 19.4487 31.6342C18.9162 31.3948 18.5263 31.0864 18.1959 30.7489C18.0979 30.6475 18.0042 30.5443 17.9137 30.4403C17.8295 30.3427 17.748 30.2432 17.6675 30.1428C17.6378 30.105 17.6084 30.0672 17.5797 30.0296C17.6414 29.9856 17.7035 29.9399 17.7659 29.8919C17.7684 29.89 17.7709 29.888 17.7733 29.8859C19.8122 28.4217 20.8433 26.1719 21.0724 23.5939C21.2401 21.706 20.875 20.1867 20.1349 19.1238C19.3926 18.0576 18.2802 17.462 16.9863 17.4175C15.8114 17.377 14.4998 17.8729 13.5626 19.1161C12.6266 20.3579 12.0755 22.3287 12.3784 25.2223C12.4777 26.1683 12.6756 27.0997 12.9718 27.9989C12.9907 28.0635 13.01 28.1274 13.0299 28.1905C12.2246 28.0688 11.4452 27.7603 10.804 27.436L11.33 26.3844C11.3548 26.3349 11.3502 26.276 11.3179 26.2308C11.2858 26.1856 11.2311 26.1613 11.1754 26.1673L5.9558 26.7359C5.90248 26.7417 5.85612 26.7745 5.83348 26.8225C5.81089 26.8703 5.81529 26.9264 5.84516 26.9704L8.68937 31.1498C8.71985 31.1946 8.77236 31.2201 8.82707 31.2165C8.88172 31.2129 8.93039 31.1809 8.95461 31.1325L9.42988 30.1829C9.79122 30.4107 10.2682 30.6247 10.7108 30.7957C11.2186 30.992 11.6985 31.1383 11.9335 31.1869H11.9336C12.3935 31.2818 13.0778 31.3704 13.759 31.3575H13.7592C13.7625 31.3577 13.7674 31.3578 13.7736 31.358C13.786 31.3583 13.8039 31.3586 13.8268 31.3585C13.8729 31.3585 13.9396 31.3573 14.0244 31.3526C14.1758 31.3443 14.3852 31.325 14.6391 31.2818C14.7869 31.4728 14.9147 31.6217 15.009 31.7261C15.0622 31.7851 15.1048 31.8299 15.1343 31.8603C15.1491 31.8754 15.1607 31.887 15.1686 31.895C15.1726 31.8989 15.1757 31.902 15.1779 31.9041ZM17.763 21.3824V21.3824C17.8923 21.7568 18.8384 24.5916 16.133 27.2611C16.0909 27.1313 16.06 27.0246 16.0388 26.9464C15.7847 25.9618 15.6795 24.9339 15.6389 23.9044C15.5815 22.4527 15.789 21.6061 16.0633 21.128C16.3326 20.6581 16.665 20.5439 16.8949 20.5439C17.1243 20.5439 17.3094 20.6618 17.4581 20.8342C17.6078 21.0079 17.7083 21.2241 17.763 21.3824ZM18.6455 14.83C19.6045 13.8856 19.6045 12.3544 18.6456 11.41C17.6865 10.4656 16.1316 10.4656 15.1726 11.41C14.2136 12.3544 14.2136 13.8856 15.1726 14.83C16.1316 15.7745 17.6865 15.7745 18.6455 14.83Z" fill="url(#paint0_linear_2466_52069)"/>
<defs>
<linearGradient id="paint0_linear_2466_52069" x1="7.47288" y1="8.61834" x2="26.7234" y2="31.9347" gradientUnits="userSpaceOnUse">
<stop stop-color="#007BDD"/>
<stop offset="1" stop-color="#611AD5"/>
</linearGradient>
</defs>
</svg>
