<svg width="312" height="137" viewBox="0 0 312 137" fill="none" xmlns="http://www.w3.org/2000/svg">
<g clip-path="url(#clip0_2466_52415)">
<rect width="312" height="137" rx="20" fill="#F5F5F5"/>
<path d="M161.038 84.2961C160.304 88.6327 158.436 92.3017 153.299 92.5679C152.832 92.5679 152.832 93.1696 153.299 93.2357C154.661 93.3974 156.04 93.1617 157.272 92.557C158.503 91.9523 159.533 91.0045 160.237 89.8277C160.916 91.3422 161.919 92.689 163.176 93.7726C164.432 94.8563 165.912 95.6503 167.51 96.0984C168.111 96.2326 168.111 95.3657 167.577 95.1655C166.065 94.6334 164.684 93.7876 163.522 92.6835C162.361 91.5795 161.446 90.2422 160.838 88.7595C161.489 87.3353 161.831 85.7888 161.839 84.2226C161.772 83.6954 161.105 83.6954 161.038 84.2961Z" fill="#141414"/>
<path d="M163.64 96.1058C162.416 94.6574 160.171 94.7713 159.636 95.438C159.37 95.7714 159.37 96.5722 160.572 96.372C161.445 96.254 162.333 96.4178 163.106 96.8396C163.507 97.1058 164.099 96.6468 163.64 96.1058Z" fill="#141414"/>
<path d="M149.43 96.64C149.034 97.1118 149.095 98.0416 150.029 97.508C150.89 96.9574 151.878 96.6356 152.898 96.573C154.167 96.5069 153.632 95.3727 152.765 95.2385C152.143 95.2322 151.526 95.3533 150.952 95.5943C150.379 95.8354 149.86 96.1912 149.43 96.64Z" fill="#141414"/>
<path d="M150.764 100.643C150.43 101.242 150.63 101.708 151.23 101.175C151.492 100.926 151.819 100.756 152.173 100.686C152.527 100.615 152.894 100.646 153.232 100.775C154.433 101.175 154.566 99.907 153.232 99.7099C152.774 99.6308 152.304 99.6756 151.87 99.8397C151.436 100.004 151.054 100.281 150.764 100.643Z" fill="#141414"/>
<path d="M162.839 99.8417C161.705 98.7074 159.904 99.175 159.57 99.9748C159.436 100.242 159.704 100.843 160.437 100.375C160.709 100.179 161.036 100.074 161.371 100.074C161.707 100.074 162.033 100.179 162.305 100.375C162.906 100.909 163.173 100.175 162.839 99.8417Z" fill="#141414"/>
<path d="M156.435 102.044C156.554 101.308 156.101 101.31 155.767 101.91C155.329 102.904 155.058 103.964 154.966 105.046C154.9 106.514 157.235 106.047 157.903 105.578C158.369 105.244 158.103 104.577 157.502 104.777C157.161 104.902 156.801 104.97 156.437 104.978C156.037 104.978 155.97 104.978 156.037 104.51C156.11 103.679 156.243 102.855 156.435 102.044Z" fill="#141414"/>
<path d="M160.171 111.117C161.779 110.4 162.106 107.582 161.906 106.18C161.772 105.446 161.373 105.513 160.972 106.38C160.304 107.782 158.236 108.65 156.235 108.383C155.434 108.317 155.634 108.915 155.834 109.317C156.368 110.318 158.643 111.8 160.171 111.117ZM161.105 107.582C161.038 108.383 160.638 109.783 159.704 110.183C159.185 110.293 158.647 110.265 158.144 110.101C157.64 109.937 157.189 109.643 156.834 109.249C157.631 109.401 158.454 109.325 159.21 109.03C159.965 108.735 160.622 108.233 161.105 107.582Z" fill="#141414"/>
<path d="M169.245 98.7072C168.998 98.5483 168.713 98.4583 168.42 98.4465C168.126 98.4347 167.835 98.5016 167.576 98.6401C167.71 97.9735 167.843 97.1726 167.31 97.1055C166.709 96.9724 166.576 98.5741 166.442 99.2355C166.376 99.6359 166.509 100.57 167.11 100.169C167.642 99.8361 168.377 99.0353 169.045 99.9693C169.979 101.371 168.044 106.975 166.509 105.374C166.042 104.907 165.642 105.307 165.375 105.975C164.707 108.595 163.503 111.048 161.839 113.18C157.435 117.984 150.963 112.647 149.295 107.909C149.162 107.442 148.361 107.643 148.494 108.109C149.763 113.447 157.035 118.785 161.905 114.648C162.027 116.358 162.295 118.054 162.706 119.719C162.751 120.119 162.906 120.498 163.153 120.816C163.401 121.134 163.731 121.377 164.107 121.52C165.051 121.765 166.045 121.742 166.976 121.454C167.509 121.253 167.243 120.452 166.709 120.52C165.939 120.686 165.143 120.686 164.374 120.52C163.774 120.252 163.707 119.318 163.574 118.718C163.257 117.019 163.034 115.303 162.906 113.58C164.507 111.493 165.686 109.113 166.376 106.574C167.243 106.975 168.644 106.842 169.644 104.373C170.245 102.844 171.061 99.7499 169.245 98.7072Z" fill="#141414"/>
<path d="M152.432 115.319C152.365 115.92 152.232 119.792 151.498 120.923C151.163 121.456 149.43 121.191 148.829 121.191C148.361 121.191 148.296 121.992 148.762 122.059C150.296 122.258 151.23 122.392 151.898 121.924C153.032 121.125 153.432 116.919 153.166 115.454C153.098 114.922 152.498 114.72 152.432 115.319Z" fill="#141414"/>
<path d="M174.382 95.6382C172.53 88.2279 167.779 77.891 158.97 77.2232C155.234 76.957 150.63 77.7557 148.426 81.0274C148.159 81.4268 148.76 82.0285 149.093 81.6281C151.429 78.9592 155.232 78.2201 158.571 78.4246C166.979 78.8921 171.245 88.9681 173.116 95.9044C175.118 103.379 176.319 111.25 181.99 115.587C182.522 115.988 183.191 115.187 182.724 114.721C176.917 109.116 176.065 102.373 174.382 95.6382Z" fill="#141414"/>
<path d="M137.019 104.178C135.98 106.521 134.951 111.384 131.481 115.988C131.214 116.322 131.547 117.053 132.481 116.254C134.283 114.657 137.819 106.776 137.886 104.445C137.953 103.978 137.225 103.714 137.019 104.178Z" fill="#141414"/>
<path d="M120.674 116.322C110.344 112.936 94.3871 105.714 85.7798 98.9082C82.8446 96.6398 83.7115 97.3107 83.5113 94.3713C83.4446 91.8427 82.4194 89.434 80.6433 87.6331C80.5995 87.5849 80.5467 87.5458 80.4878 87.518C80.4289 87.4903 80.3651 87.4744 80.3001 87.4713C80.2351 87.4682 80.1701 87.4779 80.1088 87.4999C80.0475 87.5219 79.9912 87.5557 79.943 87.5995C79.8949 87.6433 79.8558 87.6961 79.828 87.755C79.8002 87.8139 79.7844 87.8777 79.7812 87.9427C79.7781 88.0077 79.7878 88.0727 79.8099 88.134C79.8319 88.1952 79.8657 88.2516 79.9095 88.2998C81.2744 90.1478 82.0843 92.3467 82.244 94.6386C82.3771 97.6409 82.244 97.9071 84.98 99.9764C93.7864 106.447 110.199 114.654 120.54 117.323C121.074 117.523 121.274 116.521 120.674 116.322Z" fill="#141414"/>
<path d="M115.336 129.265C92.9067 118.475 84.6935 107.158 75.1042 103.845C71.3682 102.577 67.4362 101.91 64.2295 99.4417C64.1315 99.3577 64.0046 99.3152 63.8758 99.3232C63.747 99.3312 63.6264 99.3891 63.5395 99.4845C63.4527 99.58 63.4064 99.7055 63.4105 99.8345C63.4147 99.9635 63.4689 100.086 63.5617 100.175C66.4308 103.178 70.9677 103.711 75.3044 105.246C78.1918 106.394 80.8907 107.968 83.3111 109.917C90.65 115.455 105.261 127.13 115.002 130.199C116.201 130.666 115.873 129.524 115.336 129.265Z" fill="#141414"/>
<path d="M73.708 99.5091C69.4288 98.4804 67.4373 96.2396 63.9675 94.2385C63.87 94.187 63.7573 94.1725 63.65 94.1975C63.5426 94.2225 63.4479 94.2853 63.3832 94.3745C63.3185 94.4637 63.2881 94.5733 63.2976 94.683C63.3071 94.7928 63.3559 94.8955 63.435 94.9722C65.9037 97.1736 70.1733 100.31 73.446 100.776C73.6112 100.804 73.7808 100.767 73.9191 100.672C74.0574 100.578 74.1536 100.433 74.1876 100.269C74.2215 100.105 74.1905 99.9341 74.101 99.7924C74.0116 99.6507 73.8707 99.5491 73.708 99.5091Z" fill="#141414"/>
<path d="M75.838 94.5702C77.0425 95.4329 78.0393 94.5031 76.7049 93.5052C73.8266 91.6048 71.3732 89.1289 69.4991 86.2334C69.2329 85.833 68.4991 86.1663 68.6993 86.6339C70.3401 89.8607 72.8024 92.598 75.838 94.5702Z" fill="#141414"/>
<path d="M74.6367 97.5732C74.7973 97.5909 74.9588 97.5483 75.0897 97.4536C75.2206 97.3589 75.3116 97.2188 75.345 97.0607C75.3783 96.9026 75.3517 96.7377 75.2701 96.5982C75.1886 96.4586 75.0581 96.3544 74.904 96.3058C69.9667 93.9032 68.8995 92.7029 65.5629 89.1703C65.1635 88.7699 64.696 89.4376 64.9633 89.8381C66.8313 92.4356 71.2372 96.8287 74.6367 97.5732Z" fill="#141414"/>
<path d="M228.691 95.1708C230.637 92.7767 228.159 88.1652 231.626 85.3632C232.027 85.0299 231.961 84.1619 231.16 84.6294C226.89 87.031 229.562 92.5019 227.557 94.6404C226.155 96.1751 218.816 100.645 212.278 104.447C205.481 108.437 198.361 111.852 190.994 114.656C190.862 114.724 190.761 114.839 190.711 114.979C190.661 115.119 190.666 115.273 190.726 115.409C190.786 115.545 190.895 115.653 191.032 115.711C191.169 115.769 191.323 115.773 191.462 115.721C199.263 112.921 206.753 109.322 213.813 104.979C217.416 102.781 226.569 97.7822 228.691 95.1708Z" fill="#141414"/>
<path d="M233.032 90.7686C236.326 89.2872 238.436 84.631 239.504 81.3614C239.532 81.3126 239.549 81.2586 239.554 81.2027C239.56 81.1469 239.554 81.0906 239.536 81.0373C239.519 80.9839 239.491 80.9348 239.453 80.893C239.416 80.8511 239.37 80.8175 239.319 80.7943C239.268 80.771 239.213 80.7586 239.157 80.7578C239.101 80.7571 239.045 80.768 238.994 80.7899C238.942 80.8118 238.895 80.8442 238.857 80.885C238.819 80.9258 238.789 80.9742 238.77 81.027C236.568 85.0304 236.435 86.6982 232.632 89.973C232.227 90.3021 232.564 90.9773 233.032 90.7686Z" fill="#141414"/>
<path d="M238.098 92.5027C237.758 92.7605 237.898 93.5677 239.032 93.1023C240.9 92.3025 245.103 87.7645 245.704 85.8976C246.038 84.8326 245.304 84.9636 245.104 85.2298C243.199 88.0351 240.83 90.4947 238.098 92.5027Z" fill="#141414"/>
<path d="M236.227 90.3682C235.626 90.9689 235.894 91.9029 237.494 90.7687C240.237 88.4814 242.292 85.4793 243.433 82.0953C243.566 81.5628 242.965 81.4276 242.699 81.828C241.098 85.0566 238.903 87.9541 236.227 90.3682Z" fill="#141414"/>
<path d="M246.706 89.9678C242.702 94.6378 237.432 96.3056 233.028 99.6412C227.333 103.967 219.365 117.107 196.605 127.396C195.937 127.663 196.337 128.731 196.938 128.461C208.747 123.226 219.352 115.618 228.096 106.11C231.766 102.108 232.9 100.773 237.703 98.0384C241.24 96.0362 245.176 94.035 247.445 90.4992C247.773 89.7665 247.239 89.4332 246.706 89.9678Z" fill="#141414"/>
<path d="M221.085 40.0602C222.679 39.668 224.24 39.1549 225.756 38.5255C225.858 38.4484 225.933 38.3403 225.968 38.2173C226.004 38.0944 225.999 37.9632 225.954 37.8434C225.909 37.7236 225.826 37.6216 225.718 37.5526C225.61 37.4836 225.483 37.4513 225.355 37.4605C223.778 37.9168 222.238 38.4966 220.751 39.1944C220.669 39.2578 220.608 39.3465 220.58 39.447C220.552 39.5475 220.557 39.6545 220.594 39.752C220.632 39.8495 220.7 39.9322 220.788 39.9878C220.877 40.0433 220.981 40.0687 221.085 40.0602Z" fill="#141414"/>
<path d="M193.597 47.4678C195.049 47.3083 196.481 46.9952 197.867 46.5338C198.334 46.3335 198.399 45.2664 197.266 45.4688C196.149 45.8106 195.011 46.0781 193.858 46.2696C191.462 46.6009 191.86 47.5732 193.597 47.4678Z" fill="#141414"/>
<path d="M86.98 39.5953C88.6306 40.4017 90.3807 40.9858 92.1847 41.3323C92.3311 41.3381 92.475 41.2923 92.5911 41.2029C92.7072 41.1134 92.7881 40.986 92.8199 40.8429C92.8516 40.6998 92.832 40.5502 92.7646 40.42C92.6971 40.2899 92.5861 40.1876 92.4509 40.131L87.3134 38.7295C86.8469 38.6613 86.6467 39.3291 86.98 39.5953Z" fill="#141414"/>
<path d="M167.777 50.8689L171.646 50.8018C171.785 50.768 171.908 50.6867 171.993 50.5719C172.078 50.4572 172.12 50.3164 172.112 50.1738C172.104 50.0312 172.046 49.8959 171.949 49.7914C171.852 49.6869 171.721 49.6197 171.579 49.6016L166.574 49.8018C166.309 49.8678 165.375 50.8018 167.777 50.8689Z" fill="#141414"/>
<path d="M251.509 22.3804C249.43 24.1733 247.197 25.7805 244.838 27.1835C244.437 27.3838 244.77 28.1186 245.238 27.9844C246.505 27.585 251.643 24.1153 252.176 22.9789C252.377 22.5135 251.776 22.1141 251.509 22.3804Z" fill="#141414"/>
<path d="M64.0293 29.8539C60.9706 28.4949 57.8906 26.9858 54.8884 25.6514C54.3559 25.4512 54.1546 26.1839 54.488 26.4512C57.3279 28.3664 60.3994 29.9134 63.6289 31.0552C64.4297 31.3215 64.762 30.1819 64.0293 29.8539Z" fill="#141414"/>
<path d="M112.066 45.5987C112.669 45.8618 116.403 47.0663 117.072 46.733C117.142 46.6974 117.203 46.6457 117.25 46.5821C117.297 46.5184 117.328 46.4447 117.341 46.3668C117.354 46.2889 117.348 46.2091 117.325 46.1337C117.301 46.0584 117.26 45.9897 117.205 45.9331C116.804 45.4006 112.801 44.7308 112.199 44.7308C111.666 44.6647 111.601 45.3953 112.066 45.5987Z" fill="#141414"/>
<path d="M144.358 48.936C142.09 48.969 140.489 48.6016 139.287 48.6016C138.755 48.6016 137.487 50.1991 144.492 50.0691C144.639 50.0469 144.771 49.9686 144.861 49.8508C144.95 49.7329 144.991 49.5848 144.974 49.4376C144.956 49.2904 144.882 49.1558 144.767 49.0622C144.652 48.9686 144.506 48.9233 144.358 48.936Z" fill="#141414"/>
<path d="M98.4554 21.3788C97.7312 20.8325 96.3254 21.4459 98.1892 22.9146C102.463 26.3141 108.997 32.0544 113.333 35.2601C113.801 35.5934 114.398 34.9267 113.934 34.5252C109.931 30.7871 102.783 24.6409 98.4554 21.3788Z" fill="#62A7FF"/>
<path d="M134.751 32.6566C134.948 33.1252 135.885 32.8568 135.685 32.3222C132.95 24.6542 129.013 14.9755 126.345 8.37036C125.744 6.96988 124.342 7.30536 125.077 9.23833C127.278 15.2396 131.625 25.2069 134.751 32.6566Z" fill="#62A7FF"/>
<path d="M195.732 33.6555C196.85 32.5053 202.737 26.1834 207.874 19.8446C208.541 18.9777 208.074 17.9105 207.007 19.1108C203.272 23.1194 195.999 31.5212 194.932 32.9888C194.131 34.123 194.585 34.8408 195.732 33.6555Z" fill="#62A7FF"/>
<path d="M175.516 35.3238C179.652 26.7846 183.455 17.7769 187.459 9.03746C187.726 8.4368 186.725 7.97246 186.457 8.50496C182.655 15.3103 176.979 29.0595 174.582 34.9926C174.244 35.6582 175.182 35.9245 175.516 35.3238Z" fill="#62A7FF"/>
<path d="M157.568 37.9244C157.568 26.1146 156.902 14.3059 156.634 2.49611C156.568 0.0274357 155.037 0.628095 155.1 2.96364C155.5 13.9055 155.834 27.0486 156.568 38.0575C156.634 38.6614 157.568 38.5272 157.568 37.9244Z" fill="#62A7FF"/>
<path d="M143.024 94.4369C143.683 92.8991 143.224 91.636 142.557 91.2345C142.09 90.9011 141.492 91.1684 142.157 92.0354C142.264 92.3392 142.307 92.6618 142.284 92.9832C142.261 93.3046 142.173 93.6178 142.023 93.9034C141.491 95.3049 140.021 96.1058 140.155 94.1707C140.211 93.4689 140.465 92.7976 140.889 92.2356C141.29 91.7031 141.022 91.1706 140.422 91.7031C139.692 92.3559 139.239 93.2624 139.154 94.2378C139.154 97.1058 141.74 97.4328 143.024 94.4369Z" fill="#62A7FF"/>
<path d="M137.821 96.4389C138.354 96.3057 138.287 95.7051 137.754 95.7051C133.951 95.9724 131.883 99.9757 132.083 103.845C132.15 105.245 137.887 103.444 139.622 99.9757C139.822 99.5082 139.356 99.308 139.089 99.6413C138.42 100.636 137.542 101.474 136.517 102.096C135.492 102.718 134.344 103.11 133.152 103.244C133.15 100.042 134.684 96.9735 137.821 96.4389Z" fill="#62A7FF"/>
<path d="M154.1 88.2312C154.231 87.7637 154.233 87.4314 153.632 87.3643C150.63 86.9649 146.694 88.5656 144.425 90.4997C143.959 90.9001 144.358 91.4337 144.826 91.1003C147.427 89.3655 149.831 88.2312 153.032 88.2994C152.482 89.9723 151.445 91.4432 150.054 92.5244C148.664 93.6056 146.983 94.2481 145.226 94.3699C144.693 94.4359 144.758 95.0366 145.293 95.1037C147.304 95.055 149.246 94.3605 150.832 93.1229C152.418 91.8853 153.564 90.1702 154.1 88.2312Z" fill="#62A7FF"/>
<path d="M140.889 90.0332C140.898 88.0999 141.43 86.205 142.428 84.5494C143.427 82.8938 144.855 81.5392 146.56 80.6293C146.694 83.3478 145.947 86.0369 144.43 88.2973C144.097 88.7648 144.764 89.1653 145.097 88.7648C147.032 86.2112 147.894 83.0035 147.5 79.8242C147.491 79.7342 147.46 79.6478 147.411 79.5718C147.362 79.4958 147.296 79.4325 147.218 79.3869C147.14 79.3413 147.052 79.3148 146.962 79.3096C146.872 79.3043 146.782 79.3204 146.699 79.3566C142.758 81.3588 139.693 85.4271 140.096 90.0322C140.155 90.5668 140.889 90.6339 140.889 90.0332Z" fill="#62A7FF"/>
<path d="M140.889 97.84C139.518 102.274 142.89 106.714 145.226 107.78C146.426 108.381 147.094 107.848 147.427 106.715C148.294 103.512 147.094 97.7068 144.092 95.3724C143.624 94.9719 143.291 95.5055 143.691 95.9049C145.626 97.9731 147.761 104.178 146.226 106.981C145.693 106.781 140.889 104.712 141.689 97.9071C141.69 97.8058 141.652 97.7081 141.583 97.6334C141.515 97.5587 141.421 97.5125 141.32 97.504C141.219 97.4956 141.119 97.5255 141.039 97.5877C140.959 97.65 140.906 97.74 140.889 97.84Z" fill="#62A7FF"/>
<path d="M131.218 87.3645C131.17 90.9003 133.687 94.7034 137.288 94.9036C137.821 94.9036 137.955 94.237 137.422 94.1028C135.881 93.7688 134.513 92.8898 133.569 91.6275C132.625 90.3653 132.168 88.8045 132.283 87.2325C134.952 86.7649 136.554 87.6989 138.422 89.4338C138.484 89.5135 138.574 89.5653 138.675 89.5779C138.775 89.5904 138.876 89.5628 138.955 89.5009C139.035 89.439 139.087 89.3481 139.099 89.248C139.112 89.148 139.084 89.047 139.022 88.9673C137.419 86.3634 131.248 84.8948 131.218 87.3645Z" fill="#62A7FF"/>
<path d="M57.6904 58.8761C58.7554 59.5439 69.1658 58.0103 69.6333 58.2094C70.1009 58.4086 77.706 67.1501 78.4398 65.8774C79.1076 64.6111 85.2451 43.4613 86.4465 37.8562C83.9778 37.2555 70.7675 32.6526 66.2977 30.7207C64.9633 36.3269 56.6233 58.2094 57.6904 58.8761ZM68.366 39.262C68.3319 40.998 67.1646 47.2687 66.8313 50.2709C68.5578 47.9543 70.4534 45.7687 72.5024 43.7318C72.5858 43.6555 72.6905 43.6062 72.8025 43.5905C72.9145 43.5749 73.0286 43.5935 73.1297 43.6441C73.2309 43.6946 73.3144 43.7746 73.3691 43.8735C73.4239 43.9725 73.4474 44.0857 73.4364 44.1983C73.3033 47.4678 72.9689 51.0047 73.7698 54.1401C76.2037 51.0808 78.1402 47.6571 79.508 43.9949C79.5654 43.8505 79.6765 43.7339 79.818 43.6695C79.9595 43.6052 80.1204 43.5981 80.2669 43.6497C80.4135 43.7013 80.5345 43.8077 80.6044 43.9465C80.6744 44.0852 80.6879 44.2457 80.6422 44.3942C79.1829 48.5607 76.9418 52.4103 74.0392 55.7365C73.9777 55.824 73.8947 55.8943 73.7982 55.9407C73.7018 55.987 73.5951 56.0079 73.4883 56.0012C73.3815 55.9946 73.2781 55.9607 73.1881 55.9028C73.0981 55.8449 73.0245 55.7649 72.9742 55.6705C71.84 52.468 72.1073 48.9982 72.2404 45.6595C70.1645 47.8791 68.2473 50.2421 66.5033 52.7311C66.4258 52.8323 66.3178 52.906 66.1952 52.9412C66.0727 52.9763 65.942 52.9711 65.8227 52.9264C65.7033 52.8816 65.6014 52.7996 65.5322 52.6925C65.463 52.5854 65.4301 52.4589 65.4383 52.3317C65.8524 47.871 66.5209 43.4377 67.4405 39.0533C67.5651 38.5272 68.3756 38.7274 68.366 39.262Z" fill="#62A7FF"/>
<path d="M87.0471 66.881C87.6382 66.5328 96.6545 64.4124 97.7216 64.8139C98.7887 65.2154 105.861 72.2188 106.395 71.2859C106.929 70.3529 111.066 46.5992 111.132 43.7301C105.376 42.9021 99.6729 41.7454 94.0495 40.2656C93.9856 42.3956 86.505 67.2005 87.0471 66.881ZM98.1231 49.202C98.1467 49.1141 98.1894 49.0324 98.2482 48.9627C98.3069 48.8931 98.3802 48.8373 98.463 48.7992C98.5457 48.761 98.6358 48.7416 98.7269 48.7422C98.818 48.7428 98.9078 48.7635 98.99 48.8027C101.183 49.5986 103.323 50.5346 105.396 51.6047C105.496 51.6591 105.572 51.7479 105.612 51.8547C105.651 51.9614 105.65 52.0787 105.609 52.1848C105.568 52.2908 105.49 52.3784 105.389 52.4312C105.289 52.4839 105.172 52.4983 105.062 52.4716C103.036 51.8435 101.052 51.0854 99.1242 50.2021L96.8558 59.8105L103.861 60.8755C104.661 61.0086 104.328 62.1439 103.594 62.0768C103.128 62.0097 96.6555 61.2089 96.122 60.8755C95.1486 60.2695 95.8855 59.5741 98.122 49.201L98.1231 49.202ZM102.927 55.7401L98.9868 55.4067C98.7206 55.3396 97.9218 54.3417 100.052 54.3417L103.054 54.609C103.192 54.6399 103.313 54.7205 103.395 54.8353C103.477 54.9502 103.513 55.0913 103.497 55.2314C103.481 55.3715 103.414 55.5009 103.309 55.5946C103.204 55.6882 103.067 55.7397 102.926 55.739L102.927 55.7401Z" fill="#62A7FF"/>
<path d="M125.944 69.5537C127.078 70.2204 136.619 77.6935 136.218 76.1567C135.818 74.6199 139.288 48.668 137.62 47.6009C133.416 47.5327 121.34 45.7989 118.805 45.3984C117.604 55.4094 114.134 71.2183 114.935 71.6858C115.802 72.1534 124.81 68.8828 125.944 69.5537ZM122.942 63.283C123.231 59.6584 123.924 56.0776 125.01 52.6074C125.21 52.0749 125.944 52.4072 125.877 52.8737C125.127 56.152 124.57 59.4717 124.209 62.8155C125.01 62.8815 129.413 62.9496 130.013 63.283C130.106 63.3249 130.184 63.3943 130.236 63.4818C130.289 63.5694 130.313 63.6708 130.306 63.7725C130.298 63.8741 130.26 63.9712 130.196 64.0505C130.132 64.1297 130.045 64.1875 129.947 64.2159C129.415 64.4832 124.142 64.0168 123.475 64.0168C123.392 64.004 123.311 63.9746 123.239 63.9305C123.167 63.8864 123.104 63.8284 123.055 63.7599C123.005 63.6913 122.969 63.6135 122.95 63.5311C122.931 63.4487 122.928 63.3633 122.942 63.2798V63.283Z" fill="#62A7FF"/>
<path d="M143.891 73.8882C145.761 73.9212 154.566 69.083 156.301 69.6176C158.036 70.1522 170.179 76.2206 169.507 74.9554C168.835 73.6901 167.306 53.0707 165.034 49.2686C163.632 49.7351 147.887 48.8682 146.152 48.668C145.559 59.4767 142.091 73.8552 143.891 73.8882ZM151.698 57.1411C153.357 52.8012 158.369 52.7373 160.171 56.0761C160.232 56.1908 160.247 56.3243 160.213 56.4495C160.179 56.5748 160.098 56.6823 159.987 56.7502C159.877 56.8181 159.744 56.8412 159.617 56.8149C159.49 56.7886 159.378 56.7148 159.303 56.6086C157.435 53.9397 152.565 54.2731 152.298 60.2786C152.031 65.3491 156.834 66.7495 159.303 64.0146C159.904 63.4129 160.838 64.2809 160.237 64.8815C156.434 69.3513 148.613 65.2085 151.698 57.1411Z" fill="#62A7FF"/>
<path d="M183.99 54.5384C180.126 53.0538 178.652 66.2811 186.391 64.2118C189.793 63.281 187.598 55.9229 183.99 54.5384Z" fill="#62A7FF"/>
<path d="M191.061 46.0645C188.727 47.0656 176.584 49.0007 172.981 49.1349C174.046 53.0754 175.517 75.4883 177.585 75.2881C179.653 75.0878 186.592 68.1526 187.392 68.1526C188.193 68.1526 198.868 73.0888 198.067 71.5606C197.4 70.0855 192.997 49.0667 191.061 46.0645ZM189.127 62.4782C188.584 66.6136 182.322 66.3474 180.72 63.4793C177.851 58.3418 181.054 49.268 186.659 55.0658C187.657 55.9964 188.406 57.1626 188.838 58.4575C189.269 59.7524 189.368 61.1348 189.127 62.4782Z" fill="#62A7FF"/>
<path d="M198.934 44.1968C199.535 47.3333 203.605 68.8175 205.004 69.0837C206.406 69.4171 212.477 60.8108 214.012 60.6766C215.61 60.5435 228.023 64.2806 228.557 63.3455C229.09 62.4105 221.484 41.1935 219.216 38.3926C216.815 39.9943 201.737 43.7975 198.934 44.1968ZM219.017 56.7404C217.504 53.3942 216.615 50.5357 214.68 47.1991C214.147 49.4015 213.615 51.6039 213.145 53.8021C213.115 53.9008 213.059 53.9901 212.985 54.0617C212.91 54.1333 212.819 54.1848 212.719 54.2114C212.619 54.238 212.514 54.2388 212.414 54.2138C212.313 54.1888 212.221 54.1387 212.145 54.0683C210.707 52.8411 209.348 51.5251 208.075 50.1278C208.475 52.7296 208.942 55.2654 209.409 57.7958C209.425 57.8537 209.429 57.9143 209.421 57.9739C209.413 58.0334 209.393 58.0907 209.362 58.1423C209.332 58.194 209.291 58.2388 209.242 58.2742C209.194 58.3096 209.138 58.3347 209.08 58.3482C209.021 58.3617 208.961 58.3631 208.901 58.3525C208.842 58.3418 208.786 58.3194 208.736 58.2864C208.685 58.2533 208.642 58.2105 208.609 58.1604C208.576 58.1104 208.553 58.0541 208.542 57.995C207.618 54.8132 206.993 51.5523 206.674 48.2545C206.607 47.722 207.341 47.5207 207.674 47.854C209.067 49.5018 210.584 51.041 212.211 52.458C212.744 50.1225 213.345 47.788 213.879 45.3854C213.912 45.2765 213.975 45.1795 214.062 45.1061C214.149 45.0328 214.255 44.9862 214.368 44.9721C214.481 44.958 214.595 44.977 214.698 45.0267C214.8 45.0764 214.886 45.1548 214.944 45.2522C216.412 47.5878 219.481 53.3249 220.082 56.1941C220.218 56.9406 219.287 57.3389 219.017 56.7404Z" fill="#62A7FF"/>
<path d="M256.579 50.6693C255.312 49.9366 245.437 30.053 243.373 27.0508C242.308 28.8528 228.695 34.9904 226.427 35.9915C228.695 43.9981 233.899 60.6111 235.233 60.1435C236.568 59.611 243.307 49.8695 244.712 49.6692C246.105 49.4009 257.847 51.4031 256.579 50.6693ZM241.03 41.129C240.303 41.6722 239.433 42.1301 238.628 42.7265C238.027 43.1941 237.563 42.4603 237.961 41.9267C238.697 41.109 239.61 40.4698 240.63 40.0576C241.168 39.7946 241.91 40.473 241.034 41.129H241.03ZM245.3 45.4657L239.495 49.0675C238.494 49.2688 238.094 47.8673 237.828 47.1335L234.158 39.1939C233.49 37.7934 233.957 37.2588 234.891 36.9255C236.455 36.3361 238.061 35.8679 239.696 35.525C240.228 35.3908 240.429 36.1917 239.962 36.3908C238.299 36.9041 236.671 37.5285 235.092 38.2599C235.092 38.2599 239.032 46.9333 239.428 47.7384L244.699 44.4699C245.237 44.0641 245.838 45.0642 245.304 45.4657H245.3Z" fill="#62A7FF"/>
<path d="M168.711 119.992C168.511 122.994 161.772 135.871 158.569 138.406C154.096 135.136 148.295 127.263 146.626 120.459C138.757 119.829 130.987 118.285 123.475 115.856C121.395 122.092 118.989 128.215 116.27 134.2C121.373 137.336 126.87 139.781 132.616 141.472C132.416 139.937 132.084 138.47 131.881 136.999C131.815 136.467 132.349 136.331 132.549 136.931C134.137 142.423 135.319 148.024 136.085 153.69C144.292 156.226 170.378 157.227 179.519 154.358C179.986 149.42 180.52 143.015 182.588 137.811C182.788 137.278 183.455 137.476 183.322 138.011C183.122 139.278 182.856 140.48 182.655 141.681C185.658 139.746 192.134 136.476 195.932 134.013C195.399 130.877 190.194 119.002 188.126 114.736C181.941 117.414 175.402 119.184 168.711 119.992Z" fill="#62A7FF"/>
</g>
<defs>
<clipPath id="clip0_2466_52415">
<rect width="312" height="137" rx="20" fill="white"/>
</clipPath>
</defs>
</svg>
